# AST/ASF file generated using VICON BodyLanguage
# -----------------------------------------------
:version 1.10
:name VICON
:units
  mass 1.0
  length 0.45
  angle deg
:documentation
   .ast/.asf automatically generated from VICON data using
   VICON BodyBuilder and BodyLanguage model FoxedUp or BRILLIANT.MOD
:root
   order TX TY TZ RX RY RZ
   axis XYZ
   position 0 0 0  
   orientation 0 0 0 
:bonedata
  begin
     id 1 
     name lhipjoint
     direction 0.650112 -0.723553 0.232005 
     length 2.45805 
     axis 0 0 0  XYZ
  end
  begin
     id 2 
     name lfemur
     direction 0.34202 -0.939693 0  
     length 7.00073  
     axis 0 0 20  XYZ
    dof rx ry rz
    limits (-160.0 20.0)
           (-70.0 70.0)
           (-60.0 70.0)
  end
  begin
     id 3 
     name ltibia
     direction 0.34202 -0.939693 0   
     length 7.8748   
     axis 0 0 20   XYZ
    dof rx
    limits (-10.0 170.0)
  end
  begin
     id 4 
     name lfoot
     direction 0.0542825 -0.14914 0.987325   
     length 1.75978   
     axis -90 7.62852e-016 20   XYZ
    dof rx rz
    limits (-45.0 90.0)
           (-70.0 20.0)
  end
  begin
     id 5 
     name ltoes
     direction 1.53509e-011 -4.21906e-011 1   
     length 0.893912   
     axis -90 7.62852e-016 20   XYZ
    dof rx
    limits (-90.0 20.0)
  end
  begin
     id 6 
     name rhipjoint
     direction -0.637897 -0.733345 0.235145   
     length 2.42522  
     axis 0 0 0  XYZ 
  end
  begin
     id 7 
     name rfemur
     direction -0.34202 -0.939693 0   
     length 7.02549   
     axis 0 0 -20   XYZ
    dof rx ry rz
    limits (-160.0 20.0)
           (-70.0 70.0)
           (-70.0 60.0)
  end
  begin
     id 8 
     name rtibia
     direction -0.34202 -0.939693 0   
     length 7.71512   
     axis 0 0 -20   XYZ
    dof rx
    limits (-10.0 170.0)
 end
 begin
     id 9 
     name rfoot
     direction -0.0822618 -0.226012 0.970645   
     length 1.90014  
     axis -90 -7.62852e-016 -20   XYZ
    dof rx rz
    limits (-45.0 90.0)
           (-20.0 70.0)
  end
  begin
     id 10 
     name rtoes
     direction -1.53542e-011 -4.21872e-011 1   
     length 0.957341   
     axis -90 -7.62852e-016 -20   XYZ
    dof rx
    limits (-90.0 20.0)
  end
  begin
     id 11 
     name lowerback
     direction -0.0022947 0.999774 -0.0211557   
     length 1.89909   
     axis 0 0 0   XYZ
    dof rx ry rz
    limits (-20.0 45.0)
           (-30.0 30.0)
           (-30.0 30.0)
  end
  begin
     id 12 
     name upperback
     direction 0.0107737 0.998635 0.0511027   
     length 1.8853   
     axis 0 0 0   XYZ
    dof rx ry rz
    limits (-20.0 45.0)
           (-30.0 30.0)
           (-30.0 30.0)
  end
  begin
     id 13 
     name thorax
     direction 0.011824 0.998136 0.0598754   
     length 1.88911   
     axis 0 0 0   XYZ
    dof rx ry rz
    limits (-20.0 45.0)
           (-30.0 30.0)
           (-30.0 30.0)
  end
  begin
     id 14 
     name lowerneck
     direction -0.0685355 0.990319 0.120714   
     length 1.91222   
     axis 0 0 0   XYZ
    dof rx ry rz
    limits (-20.0 45.0)
           (-30.0 30.0)
           (-30.0 30.0)
  end
  begin
     id 15 
     name upperneck
     direction 0.0886204 0.955665 -0.280805   
     length 1.92526   
     axis 0 0 0   XYZ
    dof rx ry rz
    limits (-20.0 45.0)
           (-30.0 30.0)
           (-30.0 30.0)
  end
  begin
     id 16
     name head
     direction 0.0233423 0.993502 -0.111393  
     length 1.96056  
     axis 0 0 0   XYZ
    dof rx ry rz
    limits (-20.0 45.0)
           (-30.0 30.0)
           (-30.0 30.0)
  end
  begin
     id 17 
     name lclavicle
     direction 0.941873 0.32922 0.0670041  
     length 3.31705  
     axis 0 0 0   XYZ
    dof ry rz
    limits (-20.0 10.0)
           (0.0 20.0)
  end
  begin
     id 18 
     name lhumerus
     direction 1 -4.4898e-011 3.38707e-028   
     length 5.29277   
     axis 180 -30 -90   XYZ
    dof rx ry rz
    limits (-60.0 90.0)
           (-90.0 90.0)
           (-90.0 90.0)
  end
  begin
     id 19
     name lradius
     direction 1 -4.48952e-011 1.63213e-028   
     length 2.85226   
     axis 180 -30 -90   XYZ
    dof rx
    limits (-10.0 170.0)
  end
  begin
     id 20
     name lwrist
     direction 1 -4.49001e-011 1.27856e-027   
     length 1.42613   
     axis -1.61767e-015 90 90   XYZ
    dof ry
    limits (-180.0 0.0)
 end
  begin
     id 21 
     name lhand
     direction 1 -4.48976e-011 2.55931e-027   
     length 0.602097   
     axis -1.63363e-015 90 90   XYZ
    dof rx rz
    limits (-90.0 90.0)
           (-45.0 45.0)
  end
  begin
     id 22 
     name lfingers
     direction 1 -4.48986e-011 5.11684e-027   
     length 0.485426   
     axis -3.26723e-015 90 90   XYZ
    dof rx
    limits (0.0 90.0)
  end
  begin
     id 23
     name lthumb
     direction 0.707107 -6.34915e-011 0.707107   
     length 0.696978   
     axis -90 45 -2.25915e-014   XYZ
    dof rx rz
    limits (-45.0 45.0)
           (-45.0 45.0)
  end
  begin
     id 24 
     name rclavicle
     direction -0.939974 0.327078 0.0973096   
     length 3.10337  
     axis 0 0 0   XYZ 
    dof ry rz
    limits (-10.0 20.0)
           (-20.0 0.0)
  end
  begin
     id 25 
     name rhumerus
     direction -1 -4.48975e-011 1.83745e-027  
     length 5.13304   
     axis 180 30 90   XYZ
    dof rx ry rz
    limits (-90.0 60.0)
           (-90.0 90.0)
           (-90.0 90.0)
  end
  begin
     id 26 
     name rradius
     direction -1 -4.48977e-011 7.1775e-029   
     length 2.74305   
     axis 180 30 90   XYZ
    dof rx
    limits (-10.0 170.0)
  end
  begin
     id 27 
     name rwrist
     direction -1 -4.48977e-011 1.27963e-027   
     length 1.37152   
     axis -1.61767e-015 -90 -90   XYZ
    dof ry
    limits (-180.0 0.0)
  end
  begin
     id 28
     name rhand
     direction -1 -4.4888e-011 2.56782e-027   
     length 0.767976   
     axis -1.63363e-015 -90 -90   XYZ
    dof rx rz
    limits (-90.0 90.0)
           (-45.0 45.0)
  end
  begin
     id 29
     name rfingers
     direction -1 -4.48947e-011 5.12384e-027   
     length 0.619162   
     axis -3.26723e-015 -90 -90   XYZ
    dof rx
    limits (0.0 90.0)
  end
  begin
     id 30
     name rthumb
     direction -0.707107 -6.34857e-011 0.707107   
     length 0.888997   
     axis -90 -45 2.25915e-014   XYZ
    dof rx rz
    limits (-45.0 45.0)
           (-45.0 45.0)
  end
:hierarchy
  begin
    root lhipjoint rhipjoint lowerback
    lhipjoint lfemur
    lfemur ltibia
    ltibia lfoot
    lfoot ltoes
    rhipjoint rfemur
    rfemur rtibia
    rtibia rfoot
    rfoot rtoes
    lowerback upperback
    upperback thorax
    thorax lowerneck lclavicle rclavicle
    lowerneck upperneck
    upperneck head
    lclavicle lhumerus
    lhumerus lradius
    lradius lwrist
    lwrist lhand lthumb
    lhand lfingers
    rclavicle rhumerus
    rhumerus rradius
    rradius rwrist
    rwrist rhand rthumb
    rhand rfingers
  end

#!OML:ASF F:\VICON\USERDATA\INSTALL\rory3\rory3.ASF
:FULLY-SPECIFIED
:DEGREES
914
root 2.08618 16.4218 -1.81669 2.13276 -21.1841 7.41763
lowerback 17.7409 -7.88424 1.81736
upperback 9.45 -10.1437 8.55033
thorax 1.79539 -5.43806 9.76396
lowerneck -15.5027 -2.89089 -5.99054
upperneck 13.7074 -3.48868 5.43319
head 6.93852 -1.51537 2.37594
rclavicle -5.88403e-014 7.63333e-014
rhumerus -3.31019 11.516 -70.9601
rradius 54.2481
rwrist -5.62148
rhand -3.21425 13.7815
rfingers 7.12502
rthumb 22.5083 -14.9267
lclavicle -5.88403e-014 7.63333e-014
lhumerus 45.3635 -12.0682 20.4085
lradius 24.9144
lwrist -8.14283
lhand 28.0428 23.7603
lfingers 7.12502
lthumb 51.939 43.9021
rfemur -33.1903 9.83645 1.98675
rtibia 44.4076
rfoot -20.0321 4.69326
rtoes -19.7373
lfemur -26.6699 8.40623 -33.5206
ltibia 43.0039
lfoot -21.5193 5.50044
ltoes -5.94801
915
root 2.10762 16.4022 -1.80815 2.22196 -21.9114 7.52261
lowerback 17.9822 -8.05723 2.08462
upperback 9.59544 -10.3223 8.24393
thorax 1.74698 -5.50327 9.32885
lowerneck -15.3852 -2.83308 -5.81729
upperneck 13.5408 -3.50601 5.763
head 6.86871 -1.48812 2.45357
rclavicle 2.06736e-014 -4.6118e-014
rhumerus -3.67256 11.1039 -71.7398
rradius 54.7318
rwrist -6.093
rhand -3.42393 13.503
rfingers 7.12502
rthumb 22.3071 -15.2294
lclavicle 2.06736e-014 -4.6118e-014
lhumerus 45.1085 -11.4424 22.5529
lradius 24.0748
lwrist -11.001
lhand 27.3753 23.3821
lfingers 7.12502
lthumb 51.3325 43.8761
rfemur -33.849 9.98753 1.77848
rtibia 44.7656
rfoot -20.1163 5.23017
rtoes -19.0189
lfemur -27.105 8.94236 -33.7358
ltibia 43.3799
lfoot -21.7384 5.52275
ltoes -5.81047
916
root 2.12754 16.3804 -1.80174 2.31494 -22.6282 7.82488
lowerback 18.2384 -8.17974 2.16119
upperback 9.64381 -10.4517 7.94422
thorax 1.60891 -5.54833 9.01303
lowerneck -15.0728 -2.77644 -5.68528
upperneck 13.252 -3.50097 5.98929
head 6.72391 -1.4657 2.50682
rclavicle 7.4743e-014 -4.92986e-014
rhumerus -4.1369 10.4335 -72.4926
rradius 55.1226
rwrist -6.25575
rhand -3.3931 13.478
rfingers 7.12502
rthumb 22.3367 -15.2508
lclavicle 7.4743e-014 -4.92986e-014
lhumerus 44.8406 -10.7862 24.8657
lradius 23.351
lwrist -13.6721
lhand 27.1347 23.3952
lfingers 7.12502
lthumb 51.1134 44.0131
rfemur -34.6192 10.1408 1.34488
rtibia 45.1377
rfoot -20.1982 5.58668
rtoes -19.0947
lfemur -27.6138 9.40454 -34.1703
ltibia 43.6907
lfoot -21.8814 5.71879
ltoes -6.19638
917
root 2.14687 16.3595 -1.78859 2.2094 -23.3785 8.36448
lowerback 18.4456 -8.30381 2.09828
upperback 9.75902 -10.6172 7.57221
thorax 1.58261 -5.61882 8.68675
lowerneck -14.8319 -2.72462 -5.7152
upperneck 12.9626 -3.46453 6.23834
head 6.59288 -1.43417 2.59648
rclavicle -4.6118e-014 -4.29375e-014
rhumerus -4.44642 9.51361 -73.2265
rradius 55.2658
rwrist -6.09094
rhand -2.99267 13.7559
rfingers 7.12502
rthumb 22.721 -14.9263
lclavicle -4.6118e-014 -4.29375e-014
lhumerus 44.5697 -10.3744 26.6797
lradius 22.8215
lwrist -15.6347
lhand 26.9985 23.2021
lfingers 7.12502
lthumb 50.9894 43.8895
rfemur -35.2514 10.2793 0.6725
rtibia 45.4892
rfoot -20.2687 6.12947
rtoes -18.8788
lfemur -27.9503 9.92648 -34.849
ltibia 44.0035
lfoot -22.1711 5.85445
ltoes -6.17886
918
root 2.1661 16.3416 -1.76649 2.17288 -24.1693 8.65175
lowerback 18.44 -8.45018 2.337
upperback 9.99575 -10.7951 7.22067
thorax 1.74846 -5.68799 8.17779
lowerneck -14.8085 -2.67667 -5.77763
upperneck 12.766 -3.40904 6.43007
head 6.5271 -1.39603 2.67377
rclavicle 4.13472e-014 -7.95139e-014
rhumerus -4.62838 8.50846 -73.9193
rradius 55.3943
rwrist -5.87009
rhand -2.85962 14.039
rfingers 7.12502
rthumb 22.8487 -14.6276
lclavicle 4.13472e-014 -7.95139e-014
lhumerus 44.4747 -9.82699 28.4145
lradius 22.0393
lwrist -17.5562
lhand 26.8472 22.837
lfingers 7.12502
lthumb 50.8515 43.601
rfemur -35.8197 10.4618 0.275185
rtibia 45.8235
rfoot -20.3629 6.70513
rtoes -17.7419
lfemur -28.2227 10.4566 -35.2736
ltibia 44.3018
lfoot -22.4582 6.06982
ltoes -6.29286
919
root 2.18198 16.3269 -1.75314 2.39626 -24.8247 8.4895
lowerback 18.5162 -8.58933 2.79093
upperback 10.1854 -10.9183 7.05449
thorax 1.81591 -5.72552 7.7689
lowerneck -14.7998 -2.62328 -5.7357
upperneck 12.563 -3.35469 6.54375
head 6.4587 -1.35967 2.70819
rclavicle 1.04958e-013 -9.38264e-014
rhumerus -4.84992 7.52716 -74.5159
rradius 55.5788
rwrist -5.74733
rhand -3.1481 14.2157
rfingers 7.12502
rthumb 22.5718 -14.4848
lclavicle 1.04958e-013 -9.38264e-014
lhumerus 44.4877 -9.35425 29.9264
lradius 21.2776
lwrist -19.1702
lhand 26.8141 22.6349
lfingers 7.12502
lthumb 50.8213 43.4155
rfemur -36.4354 10.6894 0.358264
rtibia 46.1262
rfoot -20.7125 6.84777
rtoes -18.8278
lfemur -28.6467 10.8514 -35.2234
ltibia 44.6302
lfoot -22.6748 6.22083
ltoes -6.17026
